Format : MPEG-PS
File size : 2.22 GiB
Duration : 1h 53mn
Overall bit rate : 2 814 Kbps

Video
ID : 224 (0xE0)
Format : MPEG Video
Format version : Version 2
Format profile : Main@Main
Format settings, BVOP : Yes
Format settings, Matrix : Default
Format settings, GOP : M=3, N=15
Duration : 1h 53mn
Bit rate mode : Variable
Bit rate : 2 502 Kbps
Nominal bit rate : 8 944 Kbps
Width : 720 pixels
Height : 480 pixels
Display aspect ratio : 16:9
Frame rate : 29.970 fps
Standard : NTSC
Color space : YUV
Chroma subsampling : 4:2:0
Bit depth : 8 bits
Scan type : Progressive
Compression mode : Lossy
Bits/(Pixel*Frame) : 0.242
Stream size : 1.98 GiB (89%)

Audio
ID : 189 (0xBD)-128 (0x80)
Format : AC-3
Format/Info : Audio Coding 3
Mode extension : CM (complete main)
Muxing mode : DVD-Video
Duration : 1h 53mn
Bit rate mode : Constant
Bit rate : 256 Kbps
Channel(s) : 2 channels
Channel positions : Front: L R
Sampling rate : 48.0 KHz
Bit depth : 16 bits
Compression mode : Lossy
Stream size : 207 MiB (9%)

Menu



 
http://www.imdb.com/title/tt1401152/








Users: 7.2/10 (14,889 votes) 134 reviews | Critics: 235 reviews Metascore: 56/100 (based on 38 reviews from Metacritic.com)

A man awakens from a coma, only to discover that someone has taken on his identity and that no one, (not even his wife), believes him. With the help of a young woman, he sets out to prove who he is.
Director:
Jaume Collet-Serra
Writers:
Oliver Butcher (screenplay), Stephen Cornwell (screenplay), and 1 more credit »
Stars:
Liam Neeson, Diane Kruger and January Jones




















KINOPARK ....Thanks

Nothing special just done a custom NTSC DVD-R of my encode basically cos ive never upped one ...Not sure many will want but for those that do enjoy !

Just burn or mount the ISO its up to you




Greetz to IMAGiNE,Flawl3ss,DiLLoN,BDK,NOiR,TOXiCiNK,THC,Ez,Rx,Boobyblue,TaRiQ786,LKRG,CrEwSaDe
